# xmcd
#
# Track frame offsets:
#	150
#	10903
#	22746
#	52127
#	66140
#	92695
#	103504
#	116807
#	125793
#	135894
#	149921
#
# Disc length: 2436 seconds
# Revision: 1
# Processed by: cddbd v1.5.2PL0 Copyright (c) Steve Scherf et al.
# Submitted via: dBpowerAMP V12.0
#
DISCID=9b09820b
DTITLE=Gilles Vigneault - Le Temps qu'il fait sur mon pays CD3 1976 J'ai planté un chêne
DYEAR=2018
DGENRE=Folk
TTITLE0=J'ai planté un chêne
TTITLE1=Chanson du 29 Février
TTITLE2=Tit-Nor
TTITLE3=Une branche à la fenêtre
TTITLE4=I Went to the Market
TTITLE5=Gens du pays
TTITLE6=Quand la tendresse vient
TTITLE7=Faut que je me réveille
TTITLE8=Le Bonheur
TTITLE9=Les Neuf Couplets
TTITLE10=La Queste du pays
EXTD=
EXTT0=
EXTT1=
EXTT2=
EXTT3=
EXTT4=
EXTT5=
EXTT6=
EXTT7=
EXTT8=
EXTT9=
EXTT10=
PLAYORDER=
